solid MeshRefinement
 facet normal -0.9987569451332092 0.0 -0.04984505474567413
  outer loop
   vertex 0.00699006175994873 0.01 0.02519913482666016
   vertex 0.007 0.01 0.025
   vertex 0.007 0.0 0.025
  endloop
 endfacet
 facet normal -0.9987569451332092 -0.0 -0.04984505474567413
  outer loop
   vertex 0.00699006175994873 0.01 0.02519913482666016
   vertex 0.007 0.0 0.025
   vertex 0.00699006175994873 0.0 0.02519913482666016
  endloop
 endfacet
 facet normal -0.9888306260108948 -0.0 -0.1490439772605896
  outer loop
   vertex 0.0069603447914123534 0.01 0.025396291732788085
   vertex 0.00699006175994873 0.0 0.02519913482666016
   vertex 0.0069603447914123534 0.0 0.025396291732788085
  endloop
 endfacet
 facet normal -0.9888306260108948 0.0 -0.1490439772605896
  outer loop
   vertex 0.0069603447914123534 0.01 0.025396291732788085
   vertex 0.00699006175994873 0.01 0.02519913482666016
   vertex 0.00699006175994873 0.0 0.02519913482666016
  endloop
 endfacet
 facet normal -0.9690776467323303 -0.0 -0.24675597250461578
  outer loop
   vertex 0.0069111456871032715 0.01 0.02558950996398926
   vertex 0.0069603447914123534 0.0 0.025396291732788085
   vertex 0.0069111456871032715 0.0 0.02558950996398926
  endloop
 endfacet
 facet normal -0.9690776467323303 0.0 -0.24675597250461578
  outer loop
   vertex 0.0069111456871032715 0.01 0.02558950996398926
   vertex 0.0069603447914123534 0.01 0.025396291732788085
   vertex 0.0069603447914123534 0.0 0.025396291732788085
  endloop
 endfacet
 facet normal -0.9396920204162598 -0.0 -0.3420218825340271
  outer loop
   vertex 0.006842952251434327 0.01 0.02577686882019043
   vertex 0.0069111456871032715 0.0 0.02558950996398926
   vertex 0.006842952251434327 0.0 0.02577686882019043
  endloop
 endfacet
 facet normal -0.9396920204162598 0.0 -0.3420218825340271
  outer loop
   vertex 0.006842952251434327 0.01 0.02577686882019043
   vertex 0.0069111456871032715 0.01 0.02558950996398926
   vertex 0.0069111456871032715 0.0 0.02558950996398926
  endloop
 endfacet
 facet normal -0.9009703397750854 -0.0 -0.43388068675994873
  outer loop
   vertex 0.006756443023681641 0.01 0.02595650863647461
   vertex 0.006842952251434327 0.0 0.02577686882019043
   vertex 0.006756443023681641 0.0 0.02595650863647461
  endloop
 endfacet
 facet normal -0.8532909154891968 -0.0 -0.5214350819587708
  outer loop
   vertex 0.006756443023681641 0.01 0.02595650863647461
   vertex 0.006756443023681641 0.0 0.02595650863647461
   vertex 0.006652477741241455 0.0 0.02612664031982422
  endloop
 endfacet
 facet normal -0.9009703397750854 0.0 -0.43388068675994873
  outer loop
   vertex 0.006756443023681641 0.01 0.02595650863647461
   vertex 0.006842952251434327 0.01 0.02577686882019043
   vertex 0.006842952251434327 0.0 0.02577686882019043
  endloop
 endfacet
 facet normal -0.7971325516700745 -0.0 -0.6038044095039368
  outer loop
   vertex 0.006652477741241455 0.01 0.02612664031982422
   vertex 0.006652477741241455 0.0 0.02612664031982422
   vertex 0.006532088756561279 0.0 0.026285575866699218
  endloop
 endfacet
 facet normal -0.8532909154891968 -0.0 -0.5214350819587708
  outer loop
   vertex 0.006652477741241455 0.01 0.02612664031982422
   vertex 0.006756443023681641 0.01 0.02595650863647461
   vertex 0.006652477741241455 0.0 0.02612664031982422
  endloop
 endfacet
 facet normal -0.7971325516700745 -0.0 -0.6038044095039368
  outer loop
   vertex 0.006532088756561279 0.01 0.026285575866699218
   vertex 0.006652477741241455 0.01 0.02612664031982422
   vertex 0.006532088756561279 0.0 0.026285575866699218
  endloop
 endfacet
 facet normal -0.733051061630249 -0.0 -0.6801736950874329
  outer loop
   vertex 0.0063964734077453615 0.01 0.02643173408508301
   vertex 0.006532088756561279 0.0 0.026285575866699218
   vertex 0.0063964734077453615 0.0 0.02643173408508301
  endloop
 endfacet
 facet normal -0.6616870164871216 -0.0 -0.7497801184654236
  outer loop
   vertex 0.0063964734077453615 0.01 0.02643173408508301
   vertex 0.0063964734077453615 0.0 0.02643173408508301
   vertex 0.006246979713439941 0.0 0.026563663482666016
  endloop
 endfacet
 facet normal -0.733051061630249 0.0 -0.6801736950874329
  outer loop
   vertex 0.0063964734077453615 0.01 0.02643173408508301
   vertex 0.006532088756561279 0.01 0.026285575866699218
   vertex 0.006532088756561279 0.0 0.026285575866699218
  endloop
 endfacet
 facet normal -0.6616870164871216 -0.0 -0.7497801184654236
  outer loop
   vertex 0.006246979713439941 0.01 0.026563663482666016
   vertex 0.0063964734077453615 0.01 0.02643173408508301
   vertex 0.006246979713439941 0.0 0.026563663482666016
  endloop
 endfacet
 facet normal -0.5837416052818298 -0.0 -0.8119394779205322
  outer loop
   vertex 0.006085092544555664 0.01 0.02668005180358887
   vertex 0.006246979713439941 0.0 0.026563663482666016
   vertex 0.006085092544555664 0.0 0.02668005180358887
  endloop
 endfacet
 facet normal -0.4999983608722687 -0.0 -0.8660264015197754
  outer loop
   vertex 0.006085092544555664 0.01 0.02668005180358887
   vertex 0.006085092544555664 0.0 0.02668005180358887
   vertex 0.005912421226501465 0.0 0.02677974319458008
  endloop
 endfacet
 facet normal -0.5837416052818298 0.0 -0.8119394779205322
  outer loop
   vertex 0.006085092544555664 0.01 0.02668005180358887
   vertex 0.006246979713439941 0.01 0.026563663482666016
   vertex 0.006246979713439941 0.0 0.026563663482666016
  endloop
 endfacet
 facet normal -0.4999983608722687 -0.0 -0.8660264015197754
  outer loop
   vertex 0.005912421226501465 0.01 0.02677974319458008
   vertex 0.006085092544555664 0.01 0.02668005180358887
   vertex 0.005912421226501465 0.0 0.02677974319458008
  endloop
 endfacet
 facet normal -0.4112897515296936 -0.0 -0.9115046262741089
  outer loop
   vertex 0.005730681896209717 0.01 0.026861747741699218
   vertex 0.005912421226501465 0.0 0.02677974319458008
   vertex 0.005730681896209717 0.0 0.026861747741699218
  endloop
 endfacet
 facet normal -0.31848832964897156 -0.0 -0.9479268193244934
  outer loop
   vertex 0.005730681896209717 0.01 0.026861747741699218
   vertex 0.005730681896209717 0.0 0.026861747741699218
   vertex 0.005541680812835693 0.0 0.026925249099731447
  endloop
 endfacet
 facet normal -0.4112897515296936 0.0 -0.9115046262741089
  outer loop
   vertex 0.005730681896209717 0.01 0.026861747741699218
   vertex 0.005912421226501465 0.01 0.02677974319458008
   vertex 0.005912421226501465 0.0 0.02677974319458008
  endloop
 endfacet
 facet normal -0.31848832964897156 -0.0 -0.9479268193244934
  outer loop
   vertex 0.005541680812835693 0.01 0.026925249099731447
   vertex 0.005730681896209717 0.01 0.026861747741699218
   vertex 0.005541680812835693 0.0 0.026925249099731447
  endloop
 endfacet
 facet normal -0.22252009809017181 -0.0 -0.974928081035614
  outer loop
   vertex 0.005347296237945557 0.01 0.026969615936279296
   vertex 0.005541680812835693 0.0 0.026925249099731447
   vertex 0.005347296237945557 0.0 0.026969615936279296
  endloop
 endfacet
 facet normal -0.22252009809017181 0.0 -0.974928081035614
  outer loop
   vertex 0.005347296237945557 0.01 0.026969615936279296
   vertex 0.005541680812835693 0.01 0.026925249099731447
   vertex 0.005541680812835693 0.0 0.026925249099731447
  endloop
 endfacet
 facet normal -0.12434203177690506 -0.0 -0.9922394156455994
  outer loop
   vertex 0.005149460315704346 0.01 0.026994407653808596
   vertex 0.005347296237945557 0.0 0.026969615936279296
   vertex 0.005149460315704346 0.0 0.026994407653808596
  endloop
 endfacet
 facet normal -0.024929571896791458 -0.0 -0.9996892213821411
  outer loop
   vertex 0.005149460315704346 0.01 0.026994407653808596
   vertex 0.005149460315704346 0.0 0.026994407653808596
   vertex 0.004950138568878174 0.0 0.026999378204345705
  endloop
 endfacet
 facet normal -0.12434203177690506 0.0 -0.9922394156455994
  outer loop
   vertex 0.005149460315704346 0.01 0.026994407653808596
   vertex 0.005347296237945557 0.01 0.026969615936279296
   vertex 0.005347296237945557 0.0 0.026969615936279296
  endloop
 endfacet
 facet normal 0.07473144680261612 0.0 -0.9972037076950073
  outer loop
   vertex 0.004950138568878174 0.01 0.026999378204345705
   vertex 0.004950138568878174 0.0 0.026999378204345705
   vertex 0.004751312732696533 0.0 0.026984477996826173
  endloop
 endfacet
 facet normal -0.024929571896791458 -0.0 -0.9996892213821411
  outer loop
   vertex 0.004950138568878174 0.01 0.026999378204345705
   vertex 0.005149460315704346 0.01 0.026994407653808596
   vertex 0.004950138568878174 0.0 0.026999378204345705
  endloop
 endfacet
 facet normal 0.07473144680261612 0.0 -0.9972037076950073
  outer loop
   vertex 0.004751312732696533 0.01 0.026984477996826173
   vertex 0.004950138568878174 0.01 0.026999378204345705
   vertex 0.004751312732696533 0.0 0.026984477996826173
  endloop
 endfacet
 facet normal 0.17364631593227386 0.0 -0.984808087348938
  outer loop
   vertex 0.00455495834350586 0.01 0.02694985580444336
   vertex 0.004751312732696533 0.01 0.026984477996826173
   vertex 0.004751312732696533 0.0 0.026984477996826173
  endloop
 endfacet
 facet normal 0.17364631593227386 0.0 -0.984808087348938
  outer loop
   vertex 0.00455495834350586 0.01 0.02694985580444336
   vertex 0.004751312732696533 0.0 0.026984477996826173
   vertex 0.00455495834350586 0.0 0.02694985580444336
  endloop
 endfacet
 facet normal 0.27083879709243774 0.0 -0.962624728679657
  outer loop
   vertex 0.00436302661895752 0.01 0.026895854949951174
   vertex 0.00455495834350586 0.01 0.02694985580444336
   vertex 0.00455495834350586 0.0 0.02694985580444336
  endloop
 endfacet
 facet normal 0.27083879709243774 0.0 -0.962624728679657
  outer loop
   vertex 0.00436302661895752 0.01 0.026895854949951174
   vertex 0.00455495834350586 0.0 0.02694985580444336
   vertex 0.00436302661895752 0.0 0.026895854949951174
  endloop
 endfacet
 facet normal 0.36534374952316284 0.0 -0.9308727383613586
  outer loop
   vertex 0.00436302661895752 0.01 0.026895854949951174
   vertex 0.00436302661895752 0.0 0.026895854949951174
   vertex 0.004177425861358643 0.0 0.02682301139831543
  endloop
 endfacet
 facet normal 0.36534374952316284 0.0 -0.9308727383613586
  outer loop
   vertex 0.004177425861358643 0.01 0.02682301139831543
   vertex 0.00436302661895752 0.01 0.026895854949951174
   vertex 0.004177425861358643 0.0 0.02682301139831543
  endloop
 endfacet
 facet normal 0.45621275901794434 0.0 -0.8898707628250122
  outer loop
   vertex 0.004 0.01 0.0267320499420166
   vertex 0.004177425861358643 0.01 0.02682301139831543
   vertex 0.004177425861358643 0.0 0.02682301139831543
  endloop
 endfacet
 facet normal 0.45621275901794434 0.0 -0.8898707628250122
  outer loop
   vertex 0.004 0.01 0.0267320499420166
   vertex 0.004177425861358643 0.0 0.02682301139831543
   vertex 0.004 0.0 0.0267320499420166
  endloop
 endfacet
 facet normal 0.5425411462783813 0.0 -0.8400292992591858
  outer loop
   vertex 0.004 0.01 0.0267320499420166
   vertex 0.004 0.0 0.0267320499420166
   vertex 0.003832512617111206 0.0 0.026623876571655273
  endloop
 endfacet
 facet normal 0.5425411462783813 0.0 -0.8400292992591858
  outer loop
   vertex 0.003832512617111206 0.01 0.026623876571655273
   vertex 0.004 0.01 0.0267320499420166
   vertex 0.003832512617111206 0.0 0.026623876571655273
  endloop
 endfacet
 facet normal 0.6234891414642334 0.0 -0.7818319201469421
  outer loop
   vertex 0.003676628351211548 0.01 0.026499563217163086
   vertex 0.003832512617111206 0.01 0.026623876571655273
   vertex 0.003832512617111206 0.0 0.026623876571655273
  endloop
 endfacet
 facet normal 0.6234891414642334 0.0 -0.7818319201469421
  outer loop
   vertex 0.003676628351211548 0.01 0.026499563217163086
   vertex 0.003832512617111206 0.0 0.026623876571655273
   vertex 0.003676628351211548 0.0 0.026499563217163086
  endloop
 endfacet
 facet normal 0.6982377767562866 0.0 -0.7158659100532532
  outer loop
   vertex 0.003676628351211548 0.01 0.026499563217163086
   vertex 0.003676628351211548 0.0 0.026499563217163086
   vertex 0.0035338962078094484 0.0 0.026360345840454102
  endloop
 endfacet
 facet normal 0.6982377767562866 0.0 -0.7158659100532532
  outer loop
   vertex 0.0035338962078094484 0.01 0.026360345840454102
   vertex 0.003676628351211548 0.01 0.026499563217163086
   vertex 0.0035338962078094484 0.0 0.026360345840454102
  endloop
 endfacet
 facet normal 0.7660446763038635 0.0 -0.6427873373031616
  outer loop
   vertex 0.0034057350158691406 0.01 0.026207609176635744
   vertex 0.0035338962078094484 0.0 0.026360345840454102
   vertex 0.0034057350158691406 0.0 0.026207609176635744
  endloop
 endfacet
 facet normal 0.7660446763038635 0.0 -0.6427873373031616
  outer loop
   vertex 0.0034057350158691406 0.01 0.026207609176635744
   vertex 0.0035338962078094484 0.01 0.026360345840454102
   vertex 0.0035338962078094484 0.0 0.026360345840454102
  endloop
 endfacet
 facet normal 0.8262404203414917 0.0 -0.563317596912384
  outer loop
   vertex 0.0034057350158691406 0.01 0.026207609176635744
   vertex 0.0034057350158691406 0.0 0.026207609176635744
   vertex 0.0032934181690216064 0.0 0.026042869567871094
  endloop
 endfacet
 facet normal 0.8262404203414917 0.0 -0.563317596912384
  outer loop
   vertex 0.0032934181690216064 0.01 0.026042869567871094
   vertex 0.0034057350158691406 0.01 0.026207609176635744
   vertex 0.0032934181690216064 0.0 0.026042869567871094
  endloop
 endfacet
 facet normal 0.8782207369804382 0.0 -0.4782555103302002
  outer loop
   vertex 0.0031980621814727784 0.01 0.025867767333984375
   vertex 0.0032934181690216064 0.0 0.026042869567871094
   vertex 0.0031980621814727784 0.0 0.025867767333984375
  endloop
 endfacet
 facet normal 0.8782207369804382 0.0 -0.4782555103302002
  outer loop
   vertex 0.0031980621814727784 0.01 0.025867767333984375
   vertex 0.0032934181690216064 0.01 0.026042869567871094
   vertex 0.0032934181690216064 0.0 0.026042869567871094
  endloop
 endfacet
 facet normal 0.9214764833450317 0.0 -0.3884342908859253
  outer loop
   vertex 0.003120614767074585 0.01 0.02568404006958008
   vertex 0.0031980621814727784 0.0 0.025867767333984375
   vertex 0.003120614767074585 0.0 0.02568404006958008
  endloop
 endfacet
 facet normal 0.955572783946991 0.0 -0.29475530982017517
  outer loop
   vertex 0.003120614767074585 0.01 0.02568404006958008
   vertex 0.003120614767074585 0.0 0.02568404006958008
   vertex 0.003061845541000366 0.0 0.025493515014648437
  endloop
 endfacet
 facet normal 0.9214764833450317 0.0 -0.3884342908859253
  outer loop
   vertex 0.003120614767074585 0.01 0.02568404006958008
   vertex 0.0031980621814727784 0.01 0.025867767333984375
   vertex 0.0031980621814727784 0.0 0.025867767333984375
  endloop
 endfacet
 facet normal 0.9801725149154663 0.0 -0.1981460154056549
  outer loop
   vertex 0.003061845541000366 0.01 0.025493515014648437
   vertex 0.003061845541000366 0.0 0.025493515014648437
   vertex 0.0030223383903503417 0.0 0.025298084259033203
  endloop
 endfacet
 facet normal 0.955572783946991 0.0 -0.29475530982017517
  outer loop
   vertex 0.003061845541000366 0.01 0.025493515014648437
   vertex 0.003120614767074585 0.01 0.02568404006958008
   vertex 0.003061845541000366 0.0 0.025493515014648437
  endloop
 endfacet
 facet normal 0.9801725149154663 0.0 -0.1981460154056549
  outer loop
   vertex 0.0030223383903503417 0.01 0.025298084259033203
   vertex 0.003061845541000366 0.01 0.025493515014648437
   vertex 0.0030223383903503417 0.0 0.025298084259033203
  endloop
 endfacet
 facet normal 0.9950308203697205 0.0 -0.09956765174865723
  outer loop
   vertex 0.003002486228942871 0.01 0.025099691390991212
   vertex 0.0030223383903503417 0.0 0.025298084259033203
   vertex 0.003002486228942871 0.0 0.025099691390991212
  endloop
 endfacet
 facet normal 0.9950308203697205 0.0 -0.09956765174865723
  outer loop
   vertex 0.003002486228942871 0.01 0.025099691390991212
   vertex 0.0030223383903503417 0.01 0.025298084259033203
   vertex 0.0030223383903503417 0.0 0.025298084259033203
  endloop
 endfacet
 facet normal 1.0 0.0 0.0
  outer loop
   vertex 0.003002486228942871 0.01 0.02490030860900879
   vertex 0.003002486228942871 0.0 0.025099691390991212
   vertex 0.003002486228942871 0.0 0.02490030860900879
  endloop
 endfacet
 facet normal 1.0 0.0 -0.0
  outer loop
   vertex 0.003002486228942871 0.01 0.02490030860900879
   vertex 0.003002486228942871 0.01 0.025099691390991212
   vertex 0.003002486228942871 0.0 0.025099691390991212
  endloop
 endfacet
 facet normal 0.9950308203697205 0.0 0.09956765174865723
  outer loop
   vertex 0.0030223383903503417 0.01 0.024701915740966796
   vertex 0.003002486228942871 0.0 0.02490030860900879
   vertex 0.0030223383903503417 0.0 0.024701915740966796
  endloop
 endfacet
 facet normal 0.9950308203697205 0.0 0.09956765174865723
  outer loop
   vertex 0.0030223383903503417 0.01 0.024701915740966796
   vertex 0.003002486228942871 0.01 0.02490030860900879
   vertex 0.003002486228942871 0.0 0.02490030860900879
  endloop
 endfacet
 facet normal 0.9801725149154663 0.0 0.1981460154056549
  outer loop
   vertex 0.003061845541000366 0.01 0.024506484985351563
   vertex 0.0030223383903503417 0.0 0.024701915740966796
   vertex 0.003061845541000366 0.0 0.024506484985351563
  endloop
 endfacet
 facet normal 0.9801725149154663 0.0 0.1981460154056549
  outer loop
   vertex 0.003061845541000366 0.01 0.024506484985351563
   vertex 0.0030223383903503417 0.01 0.024701915740966796
   vertex 0.0030223383903503417 0.0 0.024701915740966796
  endloop
 endfacet
 facet normal 0.955572783946991 0.0 0.29475530982017517
  outer loop
   vertex 0.003120614767074585 0.01 0.024315959930419923
   vertex 0.003061845541000366 0.0 0.024506484985351563
   vertex 0.003120614767074585 0.0 0.024315959930419923
  endloop
 endfacet
 facet normal 0.955572783946991 0.0 0.29475530982017517
  outer loop
   vertex 0.003120614767074585 0.01 0.024315959930419923
   vertex 0.003061845541000366 0.01 0.024506484985351563
   vertex 0.003061845541000366 0.0 0.024506484985351563
  endloop
 endfacet
 facet normal 0.9214764833450317 0.0 0.3884342908859253
  outer loop
   vertex 0.0031980621814727784 0.01 0.024132232666015625
   vertex 0.003120614767074585 0.0 0.024315959930419923
   vertex 0.0031980621814727784 0.0 0.024132232666015625
  endloop
 endfacet
 facet normal 0.9214764833450317 0.0 0.3884342908859253
  outer loop
   vertex 0.0031980621814727784 0.01 0.024132232666015625
   vertex 0.003120614767074585 0.01 0.024315959930419923
   vertex 0.003120614767074585 0.0 0.024315959930419923
  endloop
 endfacet
 facet normal 0.8782207369804382 0.0 0.4782555103302002
  outer loop
   vertex 0.0032934181690216064 0.01 0.023957130432128906
   vertex 0.0031980621814727784 0.0 0.024132232666015625
   vertex 0.0032934181690216064 0.0 0.023957130432128906
  endloop
 endfacet
 facet normal 0.8782207369804382 0.0 0.4782555103302002
  outer loop
   vertex 0.0032934181690216064 0.01 0.023957130432128906
   vertex 0.0031980621814727784 0.01 0.024132232666015625
   vertex 0.0031980621814727784 0.0 0.024132232666015625
  endloop
 endfacet
 facet normal 0.8262404203414917 0.0 0.563317596912384
  outer loop
   vertex 0.0034057350158691406 0.01 0.02379239082336426
   vertex 0.0032934181690216064 0.0 0.023957130432128906
   vertex 0.0034057350158691406 0.0 0.02379239082336426
  endloop
 endfacet
 facet normal 0.8262404203414917 0.0 0.563317596912384
  outer loop
   vertex 0.0034057350158691406 0.01 0.02379239082336426
   vertex 0.0032934181690216064 0.01 0.023957130432128906
   vertex 0.0032934181690216064 0.0 0.023957130432128906
  endloop
 endfacet
 facet normal 0.7660446763038635 0.0 0.6427873373031616
  outer loop
   vertex 0.0035338962078094484 0.01 0.0236396541595459
   vertex 0.0034057350158691406 0.0 0.02379239082336426
   vertex 0.0035338962078094484 0.0 0.0236396541595459
  endloop
 endfacet
 facet normal 0.7660446763038635 0.0 0.6427873373031616
  outer loop
   vertex 0.0035338962078094484 0.01 0.0236396541595459
   vertex 0.0034057350158691406 0.01 0.02379239082336426
   vertex 0.0034057350158691406 0.0 0.02379239082336426
  endloop
 endfacet
 facet normal 0.6982377767562866 0.0 0.7158659100532532
  outer loop
   vertex 0.003676628351211548 0.01 0.023500436782836913
   vertex 0.0035338962078094484 0.0 0.0236396541595459
   vertex 0.003676628351211548 0.0 0.023500436782836913
  endloop
 endfacet
 facet normal 0.6234891414642334 0.0 0.7818319201469421
  outer loop
   vertex 0.003676628351211548 0.01 0.023500436782836913
   vertex 0.003676628351211548 0.0 0.023500436782836913
   vertex 0.003832512617111206 0.0 0.023376123428344726
  endloop
 endfacet
 facet normal 0.6982377767562866 0.0 0.7158659100532532
  outer loop
   vertex 0.003676628351211548 0.01 0.023500436782836913
   vertex 0.0035338962078094484 0.01 0.0236396541595459
   vertex 0.0035338962078094484 0.0 0.0236396541595459
  endloop
 endfacet
 facet normal 0.6234891414642334 0.0 0.7818319201469421
  outer loop
   vertex 0.003832512617111206 0.01 0.023376123428344726
   vertex 0.003676628351211548 0.01 0.023500436782836913
   vertex 0.003832512617111206 0.0 0.023376123428344726
  endloop
 endfacet
 facet normal 0.5425411462783813 0.0 0.8400292992591858
  outer loop
   vertex 0.004 0.01 0.0232679500579834
   vertex 0.003832512617111206 0.0 0.023376123428344726
   vertex 0.004 0.0 0.0232679500579834
  endloop
 endfacet
 facet normal 0.5425411462783813 0.0 0.8400292992591858
  outer loop
   vertex 0.004 0.01 0.0232679500579834
   vertex 0.003832512617111206 0.01 0.023376123428344726
   vertex 0.003832512617111206 0.0 0.023376123428344726
  endloop
 endfacet
 facet normal 0.45621275901794434 0.0 0.8898707628250122
  outer loop
   vertex 0.004177425861358643 0.01 0.02317698860168457
   vertex 0.004 0.01 0.0232679500579834
   vertex 0.004 0.0 0.0232679500579834
  endloop
 endfacet
 facet normal 0.45621275901794434 0.0 0.8898707628250122
  outer loop
   vertex 0.004177425861358643 0.01 0.02317698860168457
   vertex 0.004 0.0 0.0232679500579834
   vertex 0.004177425861358643 0.0 0.02317698860168457
  endloop
 endfacet
 facet normal 0.36534374952316284 0.0 0.9308727383613586
  outer loop
   vertex 0.00436302661895752 0.01 0.02310414505004883
   vertex 0.004177425861358643 0.01 0.02317698860168457
   vertex 0.004177425861358643 0.0 0.02317698860168457
  endloop
 endfacet
 facet normal 0.36534374952316284 0.0 0.9308727383613586
  outer loop
   vertex 0.00436302661895752 0.01 0.02310414505004883
   vertex 0.004177425861358643 0.0 0.02317698860168457
   vertex 0.00436302661895752 0.0 0.02310414505004883
  endloop
 endfacet
 facet normal 0.27083879709243774 0.0 0.962624728679657
  outer loop
   vertex 0.00436302661895752 0.01 0.02310414505004883
   vertex 0.00436302661895752 0.0 0.02310414505004883
   vertex 0.00455495834350586 0.0 0.023050144195556642
  endloop
 endfacet
 facet normal 0.27083879709243774 0.0 0.962624728679657
  outer loop
   vertex 0.00455495834350586 0.01 0.023050144195556642
   vertex 0.00436302661895752 0.01 0.02310414505004883
   vertex 0.00455495834350586 0.0 0.023050144195556642
  endloop
 endfacet
 facet normal 0.17364631593227386 0.0 0.984808087348938
  outer loop
   vertex 0.004751312732696533 0.01 0.02301552200317383
   vertex 0.00455495834350586 0.01 0.023050144195556642
   vertex 0.00455495834350586 0.0 0.023050144195556642
  endloop
 endfacet
 facet normal 0.17364631593227386 0.0 0.984808087348938
  outer loop
   vertex 0.004751312732696533 0.01 0.02301552200317383
   vertex 0.00455495834350586 0.0 0.023050144195556642
   vertex 0.004751312732696533 0.0 0.02301552200317383
  endloop
 endfacet
 facet normal 0.07473144680261612 0.0 0.9972037076950073
  outer loop
   vertex 0.004950138568878174 0.01 0.023000621795654298
   vertex 0.004751312732696533 0.01 0.02301552200317383
   vertex 0.004751312732696533 0.0 0.02301552200317383
  endloop
 endfacet
 facet normal 0.07473144680261612 0.0 0.9972037076950073
  outer loop
   vertex 0.004950138568878174 0.01 0.023000621795654298
   vertex 0.004751312732696533 0.0 0.02301552200317383
   vertex 0.004950138568878174 0.0 0.023000621795654298
  endloop
 endfacet
 facet normal -0.024929571896791458 0.0 0.9996892213821411
  outer loop
   vertex 0.004950138568878174 0.01 0.023000621795654298
   vertex 0.004950138568878174 0.0 0.023000621795654298
   vertex 0.005149460315704346 0.0 0.023005592346191407
  endloop
 endfacet
 facet normal -0.024929571896791458 0.0 0.9996892213821411
  outer loop
   vertex 0.005149460315704346 0.01 0.023005592346191407
   vertex 0.004950138568878174 0.01 0.023000621795654298
   vertex 0.005149460315704346 0.0 0.023005592346191407
  endloop
 endfacet
 facet normal -0.12434203177690506 0.0 0.9922394156455994
  outer loop
   vertex 0.005347296237945557 0.01 0.023030384063720703
   vertex 0.005149460315704346 0.01 0.023005592346191407
   vertex 0.005149460315704346 0.0 0.023005592346191407
  endloop
 endfacet
 facet normal -0.12434203177690506 0.0 0.9922394156455994
  outer loop
   vertex 0.005347296237945557 0.01 0.023030384063720703
   vertex 0.005149460315704346 0.0 0.023005592346191407
   vertex 0.005347296237945557 0.0 0.023030384063720703
  endloop
 endfacet
 facet normal -0.22252009809017181 0.0 0.974928081035614
  outer loop
   vertex 0.005347296237945557 0.01 0.023030384063720703
   vertex 0.005347296237945557 0.0 0.023030384063720703
   vertex 0.005541680812835693 0.0 0.023074750900268556
  endloop
 endfacet
 facet normal -0.22252009809017181 0.0 0.974928081035614
  outer loop
   vertex 0.005541680812835693 0.01 0.023074750900268556
   vertex 0.005347296237945557 0.01 0.023030384063720703
   vertex 0.005541680812835693 0.0 0.023074750900268556
  endloop
 endfacet
 facet normal -0.31848832964897156 0.0 0.9479268193244934
  outer loop
   vertex 0.005541680812835693 0.01 0.023074750900268556
   vertex 0.005541680812835693 0.0 0.023074750900268556
   vertex 0.005730681896209717 0.0 0.02313825225830078
  endloop
 endfacet
 facet normal -0.31848832964897156 0.0 0.9479268193244934
  outer loop
   vertex 0.005730681896209717 0.01 0.02313825225830078
   vertex 0.005541680812835693 0.01 0.023074750900268556
   vertex 0.005730681896209717 0.0 0.02313825225830078
  endloop
 endfacet
 facet normal -0.4112897515296936 0.0 0.9115046262741089
  outer loop
   vertex 0.005912421226501465 0.01 0.023220256805419923
   vertex 0.005730681896209717 0.01 0.02313825225830078
   vertex 0.005730681896209717 0.0 0.02313825225830078
  endloop
 endfacet
 facet normal -0.4112897515296936 0.0 0.9115046262741089
  outer loop
   vertex 0.005912421226501465 0.01 0.023220256805419923
   vertex 0.005730681896209717 0.0 0.02313825225830078
   vertex 0.005912421226501465 0.0 0.023220256805419923
  endloop
 endfacet
 facet normal -0.4999983608722687 0.0 0.8660264015197754
  outer loop
   vertex 0.005912421226501465 0.01 0.023220256805419923
   vertex 0.005912421226501465 0.0 0.023220256805419923
   vertex 0.006085092544555664 0.0 0.023319948196411134
  endloop
 endfacet
 facet normal -0.4999983608722687 0.0 0.8660264015197754
  outer loop
   vertex 0.006085092544555664 0.01 0.023319948196411134
   vertex 0.005912421226501465 0.01 0.023220256805419923
   vertex 0.006085092544555664 0.0 0.023319948196411134
  endloop
 endfacet
 facet normal -0.5837416052818298 0.0 0.8119394779205322
  outer loop
   vertex 0.006085092544555664 0.01 0.023319948196411134
   vertex 0.006085092544555664 0.0 0.023319948196411134
   vertex 0.006246979713439941 0.0 0.023436336517333983
  endloop
 endfacet
 facet normal -0.5837416052818298 0.0 0.8119394779205322
  outer loop
   vertex 0.006246979713439941 0.01 0.023436336517333983
   vertex 0.006085092544555664 0.01 0.023319948196411134
   vertex 0.006246979713439941 0.0 0.023436336517333983
  endloop
 endfacet
 facet normal -0.6616870164871216 0.0 0.7497801184654236
  outer loop
   vertex 0.0063964734077453615 0.01 0.023568265914916994
   vertex 0.006246979713439941 0.01 0.023436336517333983
   vertex 0.006246979713439941 0.0 0.023436336517333983
  endloop
 endfacet
 facet normal -0.6616870164871216 0.0 0.7497801184654236
  outer loop
   vertex 0.0063964734077453615 0.01 0.023568265914916994
   vertex 0.006246979713439941 0.0 0.023436336517333983
   vertex 0.0063964734077453615 0.0 0.023568265914916994
  endloop
 endfacet
 facet normal -0.733051061630249 0.0 0.6801736950874329
  outer loop
   vertex 0.006532088756561279 0.01 0.02371442413330078
   vertex 0.0063964734077453615 0.01 0.023568265914916994
   vertex 0.0063964734077453615 0.0 0.023568265914916994
  endloop
 endfacet
 facet normal -0.733051061630249 0.0 0.6801736950874329
  outer loop
   vertex 0.006532088756561279 0.01 0.02371442413330078
   vertex 0.0063964734077453615 0.0 0.023568265914916994
   vertex 0.006532088756561279 0.0 0.02371442413330078
  endloop
 endfacet
 facet normal -0.7971325516700745 0.0 0.6038044095039368
  outer loop
   vertex 0.006652477741241455 0.01 0.02387335968017578
   vertex 0.006532088756561279 0.0 0.02371442413330078
   vertex 0.006652477741241455 0.0 0.02387335968017578
  endloop
 endfacet
 facet normal -0.7971325516700745 0.0 0.6038044095039368
  outer loop
   vertex 0.006652477741241455 0.01 0.02387335968017578
   vertex 0.006532088756561279 0.01 0.02371442413330078
   vertex 0.006532088756561279 0.0 0.02371442413330078
  endloop
 endfacet
 facet normal -0.8532909154891968 0.0 0.5214350819587708
  outer loop
   vertex 0.006756443023681641 0.01 0.02404349136352539
   vertex 0.006652477741241455 0.0 0.02387335968017578
   vertex 0.006756443023681641 0.0 0.02404349136352539
  endloop
 endfacet
 facet normal -0.9009703397750854 0.0 0.43388068675994873
  outer loop
   vertex 0.006756443023681641 0.01 0.02404349136352539
   vertex 0.006756443023681641 0.0 0.02404349136352539
   vertex 0.006842952251434327 0.0 0.024223131179809572
  endloop
 endfacet
 facet normal -0.8532909154891968 0.0 0.5214350819587708
  outer loop
   vertex 0.006756443023681641 0.01 0.02404349136352539
   vertex 0.006652477741241455 0.01 0.02387335968017578
   vertex 0.006652477741241455 0.0 0.02387335968017578
  endloop
 endfacet
 facet normal -0.9009703397750854 0.0 0.43388068675994873
  outer loop
   vertex 0.006842952251434327 0.01 0.024223131179809572
   vertex 0.006756443023681641 0.01 0.02404349136352539
   vertex 0.006842952251434327 0.0 0.024223131179809572
  endloop
 endfacet
 facet normal -0.9396920204162598 0.0 0.3420218825340271
  outer loop
   vertex 0.0069111456871032715 0.01 0.024410490036010743
   vertex 0.006842952251434327 0.0 0.024223131179809572
   vertex 0.0069111456871032715 0.0 0.024410490036010743
  endloop
 endfacet
 facet normal -0.9396920204162598 0.0 0.3420218825340271
  outer loop
   vertex 0.0069111456871032715 0.01 0.024410490036010743
   vertex 0.006842952251434327 0.01 0.024223131179809572
   vertex 0.006842952251434327 0.0 0.024223131179809572
  endloop
 endfacet
 facet normal -0.9690776467323303 0.0 0.24675597250461578
  outer loop
   vertex 0.0069603447914123534 0.01 0.024603708267211914
   vertex 0.0069111456871032715 0.0 0.024410490036010743
   vertex 0.0069603447914123534 0.0 0.024603708267211914
  endloop
 endfacet
 facet normal -0.9888306260108948 0.0 0.1490439772605896
  outer loop
   vertex 0.0069603447914123534 0.01 0.024603708267211914
   vertex 0.0069603447914123534 0.0 0.024603708267211914
   vertex 0.00699006175994873 0.0 0.024800865173339844
  endloop
 endfacet
 facet normal -0.9690776467323303 0.0 0.24675597250461578
  outer loop
   vertex 0.0069603447914123534 0.01 0.024603708267211914
   vertex 0.0069111456871032715 0.01 0.024410490036010743
   vertex 0.0069111456871032715 0.0 0.024410490036010743
  endloop
 endfacet
 facet normal -0.9888306260108948 0.0 0.1490439772605896
  outer loop
   vertex 0.00699006175994873 0.01 0.024800865173339844
   vertex 0.0069603447914123534 0.01 0.024603708267211914
   vertex 0.00699006175994873 0.0 0.024800865173339844
  endloop
 endfacet
 facet normal -0.9987569451332092 0.0 0.04984505474567413
  outer loop
   vertex 0.007 0.01 0.025
   vertex 0.00699006175994873 0.0 0.024800865173339844
   vertex 0.007 0.0 0.025
  endloop
 endfacet
 facet normal -0.9987569451332092 0.0 0.04984505474567413
  outer loop
   vertex 0.007 0.01 0.025
   vertex 0.00699006175994873 0.01 0.024800865173339844
   vertex 0.00699006175994873 0.0 0.024800865173339844
  endloop
 endfacet
endsolid MeshRefinement
